<svg width="28" height="28" viewBox="0 0 28 28" fill="none" xmlns="http://www.w3.org/2000/svg">
<g clip-path="url(#clip0_1_2)">
<path fill-rule="evenodd" clip-rule="evenodd" d="M14 0C16.7689 0 19.4757 0.821086 21.778 2.35943C24.0803 3.89777 25.8747 6.08427 26.9343 8.64243C27.9939 11.2006 28.2712 14.0155 27.731 16.7313C27.1908 19.447 25.8574 21.9416 23.8995 23.8995C21.9416 25.8574 19.447 27.1908 16.7313 27.731C14.0155 28.2712 11.2006 27.9939 8.64243 26.9343C6.08427 25.8747 3.89777 24.0803 2.35943 21.778C0.821086 19.4757 0 16.7689 0 14C0 10.287 1.475 6.72601 4.10051 4.10051C6.72601 1.475 10.287 0 14 0Z" fill="#00A912"/>
<path fill-rule="evenodd" clip-rule="evenodd" d="M9.65462 11.7762L12.1361 14.1277L18.0013 8.17363C18.4867 7.68145 18.792 7.28496 19.3913 7.90248L21.335 9.89401C21.973 10.5252 21.9411 10.8966 21.335 11.4891L13.248 19.4461C11.9766 20.6902 12.1976 20.7654 10.9102 19.4894L6.38021 14.9868C6.11133 14.6951 6.14095 14.4012 6.4349 14.1118L8.69076 11.7716C9.03255 11.4116 9.30599 11.4435 9.65235 11.7716L9.65462 11.7762Z" fill="white"/>
</g>
<defs>
<clipPath id="clip0_1_2">
<rect width="28" height="28" fill="white"/>
</clipPath>
</defs>
</svg>
