<svg width="28" height="28" viewBox="0 0 28 28" fill="none" xmlns="http://www.w3.org/2000/svg">
<path fill-rule="evenodd" clip-rule="evenodd" d="M14 0C16.7689 0 19.4757 0.821086 21.778 2.35943C24.0803 3.89776 25.8747 6.08426 26.9343 8.64243C27.9939 11.2006 28.2712 14.0155 27.731 16.7313C27.1908 19.447 25.8574 21.9416 23.8995 23.8995C21.9416 25.8574 19.447 27.1908 16.7313 27.731C14.0155 28.2712 11.2006 27.9939 8.64243 26.9343C6.08426 25.8747 3.89776 24.0803 2.35943 21.778C0.821086 19.4757 0 16.7689 0 14C0 10.287 1.475 6.72601 4.1005 4.1005C6.72601 1.475 10.287 0 14 0ZM16.9941 8.38541C17.3906 7.98209 17.639 7.66081 18.1335 8.15755L19.7285 9.78222C20.2503 10.2972 20.223 10.598 19.7285 11.0788L16.7093 14.0889L19.6146 16.9941C20.0179 17.3906 20.3392 17.639 19.8424 18.1335L18.2178 19.7285C17.7028 20.2503 17.402 20.223 16.9235 19.7285L14 16.7982L11.0811 19.7171C10.6025 20.207 10.3018 20.2344 9.78678 19.7171L8.16211 18.1221C7.66081 17.6322 7.98209 17.3838 8.38997 16.9827L11.2907 14.0889L8.28288 11.0833C7.79297 10.6025 7.76562 10.3018 8.28288 9.78678L9.87793 8.16211C10.3678 7.66081 10.6162 7.98209 11.0172 8.38997L14 11.3796L16.9941 8.38541Z" fill="#F44336"/>
</svg>
